<svg xmlns="http://www.w3.org/2000/svg" width="351" height="101" fill="none"><path fill="#3083FF" d="M80.388 20.097V0H60.29v20.097H40.194v20.097H60.29V60.29h20.097V40.194h20.097V20.097H80.388ZM40.194 60.29V40.195H20.097v20.097H0v20.097h20.097v20.097h20.097V80.388H60.29V60.29H40.194Z"/><path fill="#fff" d="m146.785 0 9.576 25.96h.388l-.388-14.945V0h8.248V35.4h-11.597l-9.935-26.542h-.36l.387 15.277V35.4h-8.247V0h11.928ZM184.085 36.09c-4.945 0-8.598-1.097-10.96-3.293-2.362-2.214-3.543-5.434-3.543-9.66v-2.822c0-4.17 1.107-7.362 3.321-9.576 2.215-2.233 5.434-3.35 9.66-3.35 2.841 0 5.203.49 7.085 1.468 1.9.96 3.321 2.334 4.262 4.123.959 1.79 1.439 3.94 1.439 6.45v.913c0 .7-.037 1.42-.111 2.158-.055.72-.138 1.393-.249 2.02h-7.638c.073-1.07.12-2.075.138-3.016.018-.96.028-1.827.028-2.602 0-1.125-.176-2.066-.526-2.823a3.718 3.718 0 0 0-1.633-1.771c-.72-.406-1.651-.609-2.795-.609-1.698 0-2.943.461-3.737 1.384-.775.904-1.162 2.196-1.162 3.875v2.49l.055.914V24.3c0 .701.111 1.366.332 1.993.24.627.646 1.18 1.218 1.66.59.462 1.393.83 2.408 1.108 1.033.258 2.343.387 3.93.387 1.679 0 3.294-.157 4.843-.47a28.95 28.95 0 0 0 4.456-1.329l-.692 6.366c-1.254.646-2.74 1.153-4.455 1.522-1.716.369-3.608.553-5.674.553Zm-10.019-11.568V19.29h19.207v5.23h-19.207ZM203.01 35.399l-5.453-27.207h8.58l3.377 21.229h.498l3.321-20.564h10.351l3.377 20.564h.47l3.404-21.229h8.497L233.98 35.4h-12.04l-2.74-17.326-.47-3.044h-.388l-.498 3.044-2.74 17.326H203.01ZM254.621 26.93c-4.373 0-7.658-.812-9.853-2.436-2.196-1.624-3.294-3.902-3.294-6.836v-.36c0-1.993.443-3.672 1.329-5.037.904-1.384 2.288-2.454 4.151-3.21 1.864-.757 4.253-1.21 7.168-1.357l14.531-.664v5.978l-7.224-.194v.277c1.236.203 2.251.554 3.045 1.052.811.48 1.411 1.116 1.799 1.91.405.775.608 1.734.608 2.878v.194c0 2.527-1.005 4.465-3.016 5.812-1.993 1.328-5.074 1.993-9.244 1.993Zm-.416 12.87h.831c1.328 0 2.398-.084 3.21-.25.831-.166 1.439-.415 1.827-.747.387-.332.581-.747.581-1.246v-.055c0-.646-.277-1.107-.83-1.384-.535-.276-1.347-.461-2.436-.553l-8.026-.803 1.854-.11a4.555 4.555 0 0 0-1.439.47 2.943 2.943 0 0 0-.941.83c-.221.332-.332.738-.332 1.218v.055c0 .554.203 1.024.609 1.412.406.387 1.024.673 1.854.858.849.203 1.928.304 3.238.304Zm-.415 6.199c-2.73 0-5.065-.222-7.002-.664-1.919-.425-3.376-1.108-4.373-2.049-.996-.94-1.494-2.186-1.494-3.736v-.11c0-1.052.23-1.938.692-2.657.461-.72 1.125-1.283 1.992-1.689.867-.406 1.882-.655 3.045-.747v-.277c-1.421-.258-2.519-.71-3.294-1.356-.756-.646-1.135-1.55-1.135-2.712v-.028c0-.83.185-1.531.554-2.103.387-.572.95-1.006 1.688-1.301.738-.314 1.642-.498 2.713-.554v-.913l6.255 1.577-1.827-.027c-.646 0-1.107.083-1.384.249-.258.166-.387.415-.387.747v.028c0 .406.212.701.636.886.443.166 1.153.304 2.131.415l6.449.747c3.137.369 5.471 1.144 7.002 2.325 1.532 1.18 2.297 3.007 2.297 5.48v.166c0 1.882-.535 3.432-1.605 4.65-1.052 1.236-2.583 2.149-4.594 2.74-1.993.608-4.429.913-7.307.913h-1.052Zm.554-24.77c1.088 0 1.983-.14 2.684-.416.72-.295 1.255-.72 1.606-1.273.369-.572.553-1.255.553-2.048v-.25c0-.793-.175-1.466-.526-2.02-.35-.553-.885-.968-1.605-1.245-.701-.295-1.605-.443-2.712-.443h-.028c-1.125 0-2.048.148-2.768.443-.719.295-1.254.72-1.605 1.273-.332.553-.498 1.227-.498 2.02v.222c0 .793.175 1.476.526 2.048.369.553.913.978 1.633 1.273.719.277 1.633.415 2.74.415ZM285.062 36.09c-4.945 0-8.599-1.097-10.96-3.293-2.362-2.214-3.543-5.434-3.543-9.66v-2.822c0-4.17 1.107-7.362 3.321-9.576 2.214-2.233 5.434-3.35 9.659-3.35 2.842 0 5.204.49 7.086 1.468 1.9.96 3.321 2.334 4.262 4.123.959 1.79 1.439 3.94 1.439 6.45v.913c0 .7-.037 1.42-.111 2.158-.055.72-.138 1.393-.249 2.02h-7.639c.074-1.07.12-2.075.139-3.016.018-.96.027-1.827.027-2.602 0-1.125-.175-2.066-.525-2.823a3.718 3.718 0 0 0-1.633-1.771c-.72-.406-1.652-.609-2.796-.609-1.697 0-2.943.461-3.736 1.384-.775.904-1.162 2.196-1.162 3.875v2.49l.055.914V24.3c0 .701.111 1.366.332 1.993.24.627.646 1.18 1.218 1.66.59.462 1.393.83 2.408 1.108 1.033.258 2.343.387 3.93.387a24.36 24.36 0 0 0 4.843-.47 28.984 28.984 0 0 0 4.456-1.329l-.692 6.366c-1.254.646-2.74 1.153-4.456 1.522-1.716.369-3.607.553-5.673.553Zm-10.019-11.568V19.29h19.207v5.23h-19.207ZM318.399 35.399V19.4c0-.996-.129-1.854-.387-2.573-.258-.738-.692-1.301-1.301-1.689-.609-.387-1.439-.58-2.491-.58-.867 0-1.633.156-2.297.47a4.736 4.736 0 0 0-1.688 1.245 5.247 5.247 0 0 0-.997 1.771l-1.3-3.957h1.439c.295-1.237.775-2.344 1.439-3.322.683-.978 1.614-1.752 2.795-2.324 1.181-.59 2.676-.886 4.484-.886 2.03 0 3.69.397 4.982 1.19 1.291.775 2.242 1.937 2.85 3.487.628 1.55.941 3.487.941 5.812V35.4h-8.469Zm-17.491 0V8.192h8.413l-.276 6.809.332.803v19.595h-8.469ZM343.029 36.008c-2.417 0-4.345-.36-5.784-1.08-1.421-.738-2.445-1.836-3.072-3.293-.628-1.458-.941-3.257-.941-5.397V11.043h8.413v13.838c0 1.329.295 2.307.886 2.934.609.61 1.734.913 3.376.913.905 0 1.799-.1 2.685-.304A13.672 13.672 0 0 0 351 27.65l-.72 7.002c-.941.406-2.029.73-3.265.969-1.218.258-2.547.388-3.986.388Zm-13.451-21.063V8.303h21.173l-.747 6.642h-20.426Zm3.764-6.033-.027-7.03 8.386-.802-.305 7.832h-8.054ZM138.925 90.275V86.4h8.58c3.137 0 5.489-.849 7.057-2.546 1.587-1.716 2.381-4.16 2.381-7.335v-7.887c0-3.192-.794-5.637-2.381-7.335-1.568-1.697-3.92-2.546-7.057-2.546h-8.608v-3.847h8.774c4.576 0 8.035 1.18 10.379 3.543 2.343 2.343 3.515 5.729 3.515 10.157v7.943c0 4.41-1.172 7.805-3.515 10.185-2.344 2.362-5.803 3.543-10.379 3.543h-8.746Zm-3.1 0V54.904h4.539v35.37h-4.539ZM168.14 90.275V63.262h4.484v27.013h-4.484Zm2.242-31.44c-.922 0-1.614-.24-2.076-.72-.442-.499-.664-1.172-.664-2.02v-.14c0-.866.222-1.54.664-2.02.462-.48 1.154-.72 2.076-.72.923 0 1.615.24 2.076.72.461.48.692 1.154.692 2.02v.14c0 .866-.231 1.54-.692 2.02-.461.48-1.153.72-2.076.72ZM190.575 82.193c-3.672 0-6.495-.802-8.469-2.408-1.956-1.605-2.934-3.902-2.934-6.891v-.692c0-1.864.378-3.487 1.135-4.871.775-1.384 2.002-2.463 3.681-3.238 1.679-.794 3.875-1.227 6.587-1.301l13.783-.443v3.543l-8.137-.277-.028.194c1.273.258 2.316.7 3.128 1.328a5.643 5.643 0 0 1 1.799 2.353c.406.94.609 2.038.609 3.293v.61c0 2.859-.941 5.046-2.823 6.558-1.882 1.495-4.659 2.242-8.331 2.242Zm-.194 14.89h.637c1.66 0 3.081-.129 4.262-.387 1.199-.24 2.122-.627 2.768-1.163.645-.535.968-1.245.968-2.13v-.111c0-1.034-.378-1.827-1.134-2.38-.738-.536-2.012-.886-3.82-1.052l-7.639-.692 1.274-.056c-1.034.148-1.947.388-2.74.72-.775.332-1.384.766-1.827 1.3-.443.554-.664 1.237-.664 2.049v.055c0 .941.323 1.698.968 2.27.646.572 1.559.978 2.74 1.218 1.181.24 2.584.36 4.207.36Zm-.249 3.571c-2.435 0-4.539-.213-6.31-.637-1.753-.406-3.118-1.08-4.096-2.02-.96-.923-1.439-2.168-1.439-3.737v-.11c0-1.108.258-2.03.774-2.768.536-.738 1.246-1.32 2.132-1.744.904-.424 1.909-.71 3.016-.858l-.027-.166c-1.513-.258-2.63-.7-3.349-1.328-.72-.646-1.08-1.476-1.08-2.491v-.028c0-.7.157-1.3.471-1.799.332-.498.821-.895 1.467-1.19.664-.295 1.504-.48 2.518-.553v-.554l5.148 1.3-2.103-.055c-1.255.019-2.122.176-2.602.471-.48.277-.719.701-.719 1.273v.028c0 .609.341 1.07 1.024 1.384.682.313 1.845.562 3.487.747l6.559.664c2.86.295 4.945.987 6.255 2.076 1.31 1.07 1.965 2.657 1.965 4.76v.139c0 1.679-.498 3.053-1.494 4.124-.997 1.07-2.408 1.845-4.235 2.324-1.827.499-4.013.748-6.559.748h-.803Zm.388-21.782c1.55 0 2.832-.221 3.847-.664 1.033-.462 1.808-1.144 2.325-2.048.535-.923.802-2.048.802-3.377v-.664c0-1.292-.258-2.39-.775-3.294-.498-.904-1.254-1.586-2.269-2.048-1.015-.48-2.288-.72-3.82-.72h-.166c-1.66 0-3.017.26-4.068.776-1.033.498-1.79 1.208-2.27 2.13-.461.905-.692 1.966-.692 3.184v.636c0 1.329.259 2.445.775 3.35.535.903 1.329 1.586 2.381 2.047 1.051.461 2.361.692 3.93.692ZM208.52 90.275V63.262h4.484v27.013h-4.484Zm2.242-31.44c-.922 0-1.614-.24-2.076-.72-.442-.499-.664-1.172-.664-2.02v-.14c0-.866.222-1.54.664-2.02.462-.48 1.154-.72 2.076-.72.923 0 1.615.24 2.076.72.461.48.692 1.154.692 2.02v.14c0 .866-.231 1.54-.692 2.02-.461.48-1.153.72-2.076.72ZM230.263 90.828c-2.085 0-3.764-.313-5.037-.94-1.273-.628-2.196-1.578-2.768-2.851-.572-1.273-.858-2.86-.858-4.76v-17.05h4.428V81.75c0 1.772.406 3.082 1.218 3.93.812.83 2.177 1.246 4.096 1.246 1.089 0 2.131-.12 3.128-.36a13.078 13.078 0 0 0 2.851-1.024l-.416 3.847c-.867.443-1.882.794-3.044 1.052a16.537 16.537 0 0 1-3.598.387Zm-13.091-23.58V63.65h19.872l-.415 3.598h-19.457Zm4.456-3.155-.028-7.584 4.511-.58-.193 8.164h-4.29ZM258.301 90.275l.194-6.56-.166-.691v-8.608l.028-1.578c0-2.195-.563-3.819-1.689-4.87-1.107-1.052-2.869-1.578-5.286-1.578-1.937 0-3.718.277-5.342.83-1.605.554-3.035 1.2-4.289 1.938l.415-3.82c.701-.424 1.531-.84 2.491-1.245.977-.425 2.085-.775 3.321-1.052 1.254-.277 2.629-.415 4.124-.415 1.937 0 3.579.24 4.926.72 1.365.46 2.463 1.134 3.294 2.02.848.885 1.466 1.956 1.854 3.21.387 1.255.581 2.657.581 4.207v17.492h-4.456Zm-9.299.581c-2.676 0-4.733-.646-6.172-1.937-1.421-1.31-2.131-3.174-2.131-5.591v-.803c0-2.49.766-4.345 2.297-5.563 1.55-1.236 4.004-2.094 7.362-2.574l8.552-1.217.249 3.265-8.248 1.19c-2.066.296-3.542.803-4.428 1.523-.885.701-1.328 1.743-1.328 3.127v.443c0 1.42.433 2.51 1.301 3.266.885.757 2.204 1.135 3.957 1.135 1.55 0 2.879-.268 3.986-.803 1.107-.535 2.002-1.255 2.684-2.159a7.627 7.627 0 0 0 1.384-3.017l.692 3.045h-.858a8.941 8.941 0 0 1-1.467 3.293c-.701 1.015-1.688 1.836-2.961 2.464-1.273.609-2.897.913-4.871.913ZM269.767 90.275V53.603h4.456v36.672h-4.456Z"/></svg>