<?xml version="1.0" standalone="no"?>
<!DOCTYPE svg PUBLIC "-//W3C//DTD SVG 20010904//EN"
 "http://www.w3.org/TR/2001/REC-SVG-20010904/DTD/svg10.dtd">
<svg version="1.0" xmlns="http://www.w3.org/2000/svg"
 width="512.000000pt" height="512.000000pt" viewBox="0 0 512.000000 512.000000"
 preserveAspectRatio="xMidYMid meet">
<metadata>
Created by potrace 1.14, written by Peter Selinger 2001-2017
</metadata>
<g transform="translate(0.000000,512.000000) scale(0.100000,-0.100000)"
fill="#000000" stroke="none">
<path d="M3071 4614 c1 -328 -3 -509 -9 -513 -6 -3 -236 -6 -511 -5 l-501 0
-1 -45 c0 -25 -1 -255 -2 -511 l-2 -465 -490 -2 c-269 -1 -499 -2 -511 -2 -20
-1 -20 -3 -20 -507 1 -278 -3 -508 -7 -511 -5 -3 -235 -5 -513 -5 l-504 0 2
-512 3 -511 500 -1 c275 -1 505 -2 510 -3 7 -1 10 -178 9 -511 l0 -510 512 0
512 0 -1 510 c-1 333 1 511 8 513 6 1 236 2 513 2 l502 -1 1 30 c1 39 1 943 0
972 l-1 22 -506 0 c-278 0 -508 3 -511 6 -7 6 -7 1006 0 1012 4 4 844 8 992 5
l30 -1 0 -511 0 -512 495 1 c272 0 502 1 511 1 13 1 15 56 15 507 -1 352 2
508 10 511 6 2 235 5 510 6 l499 2 0 510 0 510 -500 0 c-275 1 -505 4 -510 7
-6 4 -10 189 -9 512 l0 506 -513 0 -512 0 0 -506z"/>
</g>
</svg>
